<svg width="64" height="64" viewBox="0 0 64 64" fill="none" xmlns="http://www.w3.org/2000/svg">
<g filter="url(#filter0_d_1_98)">
<rect x="4" width="56" height="56" rx="8.4" fill="url(#paint0_linear_1_98)"/>
<rect x="5.05" y="1.05" width="53.9" height="53.9" rx="7.35" stroke="white" stroke-opacity="0.15" stroke-width="2.1"/>
<g clip-path="url(#clip0_1_98)">
<path d="M37.47 10.9578C37.7741 11.335 37.9291 11.8441 38.2378 12.8609L45.0053 35.0909C42.4635 33.7717 39.7352 32.848 36.9147 32.3519L32.5091 17.4625C32.4743 17.3435 32.4018 17.239 32.3026 17.1646C32.2033 17.0903 32.0826 17.0502 31.9586 17.0504C31.8346 17.0505 31.714 17.0909 31.6149 17.1654C31.5158 17.24 31.4436 17.3446 31.4091 17.4637L27.0563 32.3444C24.2234 32.8385 21.483 33.7636 18.9303 35.0875L25.7297 12.8562C26.0409 11.8406 26.1959 11.3325 26.4997 10.9553C26.7682 10.6233 27.117 10.3654 27.5131 10.2059C27.9609 10.0262 28.4931 10.0262 29.5553 10.0262H34.4125C35.4756 10.0262 36.0078 10.0262 36.4572 10.2072C36.8536 10.3666 37.2021 10.625 37.47 10.9578Z" fill="url(#paint1_linear_1_98)"/>
<path d="M38.2794 36.1481C37.1637 37.1028 34.9369 37.7534 32.3722 37.7534C29.2253 37.7534 26.5862 36.7731 25.8866 35.4547C25.6366 36.2103 25.5803 37.0747 25.5803 37.6278C25.5803 37.6278 25.4156 40.3387 27.3016 42.2247C27.3016 41.9919 27.3474 41.7615 27.4365 41.5464C27.5256 41.3314 27.6561 41.136 27.8207 40.9715C27.9853 40.8069 28.1807 40.6764 28.3958 40.5873C28.6108 40.4983 28.8413 40.4525 29.0741 40.4525C30.7522 40.4525 30.7512 41.9159 30.75 43.105V43.21C30.75 45.0141 31.8522 46.5597 33.4197 47.2116C33.1781 46.7153 33.0528 46.1704 33.0534 45.6184C33.0534 43.8972 34.0628 43.2575 35.2372 42.5128C36.1712 41.9209 37.2087 41.2628 37.9228 39.9434C38.3082 39.2325 38.5096 38.4365 38.5087 37.6278C38.5092 37.1257 38.4318 36.6265 38.2794 36.1481Z" fill="#FF5D01"/>
<path d="M38.2794 36.1481C37.1637 37.1028 34.9369 37.7534 32.3722 37.7534C29.2253 37.7534 26.5862 36.7731 25.8866 35.4547C25.6366 36.2103 25.5803 37.0747 25.5803 37.6278C25.5803 37.6278 25.4156 40.3387 27.3016 42.2247C27.3016 41.9919 27.3474 41.7615 27.4365 41.5464C27.5256 41.3314 27.6561 41.136 27.8207 40.9715C27.9853 40.8069 28.1807 40.6764 28.3958 40.5873C28.6108 40.4983 28.8413 40.4525 29.0741 40.4525C30.7522 40.4525 30.7512 41.9159 30.75 43.105V43.21C30.75 45.0141 31.8522 46.5597 33.4197 47.2116C33.1781 46.7153 33.0528 46.1704 33.0534 45.6184C33.0534 43.8972 34.0628 43.2575 35.2372 42.5128C36.1712 41.9209 37.2087 41.2628 37.9228 39.9434C38.3082 39.2325 38.5096 38.4365 38.5087 37.6278C38.5092 37.1257 38.4318 36.6265 38.2794 36.1481Z" fill="url(#paint2_linear_1_98)"/>
</g>
</g>
<defs>
<filter id="filter0_d_1_98" x="0" y="0" width="64" height="64" filterUnits="userSpaceOnUse" color-interpolation-filters="sRGB">
<feFlood flood-opacity="0" result="BackgroundImageFix"/>
<feColorMatrix in="SourceAlpha" type="matrix" values="0 0 0 0 0 0 0 0 0 0 0 0 0 0 0 0 0 0 127 0" result="hardAlpha"/>
<feOffset dy="4"/>
<feGaussianBlur stdDeviation="2"/>
<feComposite in2="hardAlpha" operator="out"/>
<feColorMatrix type="matrix" values="0 0 0 0 0 0 0 0 0 0 0 0 0 0 0 0 0 0 0.25 0"/>
<feBlend mode="normal" in2="BackgroundImageFix" result="effect1_dropShadow_1_98"/>
<feBlend mode="normal" in="SourceGraphic" in2="effect1_dropShadow_1_98" result="shape"/>
</filter>
<linearGradient id="paint0_linear_1_98" x1="32" y1="0" x2="32" y2="56" gradientUnits="userSpaceOnUse">
<stop stop-color="#1D2B5C"/>
<stop offset="1" stop-color="#0A0820"/>
</linearGradient>
<linearGradient id="paint1_linear_1_98" x1="39.5937" y1="8.84728" x2="31.9673" y2="35.0907" gradientUnits="userSpaceOnUse">
<stop stop-color="#000014"/>
<stop offset="1" stop-color="#150426"/>
</linearGradient>
<linearGradient id="paint2_linear_1_98" x1="43.3025" y1="28.3891" x2="36.6977" y2="42.2159" gradientUnits="userSpaceOnUse">
<stop stop-color="#FF1639"/>
<stop offset="1" stop-color="#FF1639" stop-opacity="0"/>
</linearGradient>
<clipPath id="clip0_1_98">
<rect width="40" height="40" fill="white" transform="translate(12 8)"/>
</clipPath>
</defs>
</svg>
